# Blender v2.68 (sub 0) OBJ File: 'thaumicPipe.blend'
# www.blender.org
o Arm6
v 0.300000 -0.200000 0.200000
v 0.300000 -0.200000 -0.200000
v 1.300000 -0.200000 -0.200000
v 1.300000 -0.200000 0.200000
v 0.300000 0.200000 0.200000
v 0.300000 0.200000 -0.200000
v 1.300000 0.200000 -0.200000
v 1.300000 0.200000 0.200000
vt 0.500000 0.000000
vt 0.500000 0.625000
vt 0.250000 0.000000
vt 0.500000 0.875000
vt 0.750000 0.875000
vt 0.000000 0.625000
vt 0.000000 0.000000
vt 0.250000 0.625000
vt 0.750000 0.000000
vt 1.000000 0.625000
vt 0.750000 0.625000
vt 1.000000 0.000000
vn 0.000000 0.000000 -1.000000
vn 1.000000 -0.000000 0.000000
vn 0.000000 -0.000000 1.000000
vn -0.000000 -1.000000 0.000000
vn -0.000000 1.000000 0.000000
s off
f 6/1/1 7/2/1 2/3/1
f 7/4/2 8/2/2 3/5/2
f 8/6/3 5/7/3 4/8/3
f 1/1/4 2/9/4 4/2/4
f 8/10/5 7/11/5 5/12/5
f 7/2/1 3/8/1 2/3/1
f 8/2/2 4/11/2 3/5/2
f 5/7/3 1/3/3 4/8/3
f 2/9/4 3/11/4 4/2/4
f 7/11/5 6/9/5 5/12/5
o Arm5
v -1.300000 -0.200000 0.200000
v -1.300000 -0.200000 -0.200000
v -0.300000 -0.200000 -0.200000
v -0.300000 -0.200000 0.200000
v -1.300000 0.200000 0.200000
v -1.300000 0.200000 -0.200000
v -0.300000 0.200000 -0.200000
v -0.300000 0.200000 0.200000
vt 0.500000 0.625000
vt 0.500000 0.875000
vt 0.250000 0.625000
vt 0.500000 0.000000
vt 0.250000 0.000000
vt 0.000000 0.625000
vt 0.000000 0.000000
vt 0.750000 0.000000
vt 1.000000 0.625000
vt 0.750000 0.625000
vt 1.000000 0.000000
vt 0.250000 0.875000
vn -1.000000 0.000000 0.000000
s off
f 13/13/6 14/14/6 9/15/6
f 14/16/1 15/13/1 10/17/1
f 16/18/3 13/19/3 12/15/3
f 9/16/4 10/20/4 12/13/4
f 16/21/5 15/22/5 13/23/5
f 14/14/6 10/24/6 9/15/6
f 15/13/1 11/15/1 10/17/1
f 13/19/3 9/17/3 12/15/3
f 10/20/4 11/22/4 12/13/4
f 15/22/5 14/20/5 13/23/5
o Arm4
v -0.200000 -0.200000 1.300000
v -0.200000 -0.200000 0.300000
v 0.200000 -0.200000 0.300000
v 0.200000 -0.200000 1.300000
v -0.200000 0.200000 1.300000
v -0.200000 0.200000 0.300000
v 0.200000 0.200000 0.300000
v 0.200000 0.200000 1.300000
vt 0.500000 0.000000
vt 0.500000 0.625000
vt 0.250000 0.000000
vt 0.000000 0.625000
vt 0.000000 0.000000
vt 0.250000 0.625000
vt 0.500000 0.875000
vt 0.750000 0.875000
vt 1.000000 0.000000
vt 1.000000 0.625000
vt 0.750000 0.000000
vt 0.750000 0.625000
s off
f 21/25/6 22/26/6 17/27/6
f 23/28/2 24/29/2 19/30/2
f 24/31/3 21/26/3 20/32/3
f 17/33/4 18/34/4 20/35/4
f 24/35/5 23/36/5 21/25/5
f 22/26/6 18/30/6 17/27/6
f 24/29/2 20/27/2 19/30/2
f 21/26/3 17/36/3 20/32/3
f 18/34/4 19/36/4 20/35/4
f 23/36/5 22/26/5 21/25/5
o Arm3
v -0.200000 -0.200000 -0.300000
v -0.200000 -0.200000 -1.300000
v 0.200000 -0.200000 -1.300000
v 0.200000 -0.200000 -0.300000
v -0.200000 0.200000 -0.300000
v -0.200000 0.200000 -1.300000
v 0.200000 0.200000 -1.300000
v 0.200000 0.200000 -0.300000
vt 0.500000 0.000000
vt 0.500000 0.625000
vt 0.250000 0.000000
vt 0.250000 0.625000
vt 0.250000 0.875000
vt 0.000000 0.625000
vt 0.000000 0.000000
vt 1.000000 0.000000
vt 1.000000 0.625000
vt 0.750000 0.000000
vt 0.750000 0.625000
vt 0.500000 0.875000
s off
f 29/37/6 30/38/6 25/39/6
f 30/40/1 31/38/1 26/41/1
f 31/42/2 32/43/2 27/40/2
f 25/44/4 26/45/4 28/46/4
f 32/46/5 31/47/5 29/37/5
f 30/38/6 26/40/6 25/39/6
f 31/38/1 27/48/1 26/41/1
f 32/43/2 28/39/2 27/40/2
f 26/45/4 27/47/4 28/46/4
f 31/47/5 30/38/5 29/37/5
o Arm1
v -0.200000 0.300000 0.200000
v -0.200000 0.300000 -0.200000
v 0.200000 0.300000 -0.200000
v 0.200000 0.300000 0.200000
v -0.200000 1.300000 0.200000
v -0.200000 1.300000 -0.200000
v 0.200000 1.300000 -0.200000
v 0.200000 1.300000 0.200000
vt 1.000000 0.625000
vt 0.750000 0.625000
vt 1.000000 0.000000
vt 0.500000 0.625000
vt 0.750000 0.000000
vt 0.250000 0.625000
vt 0.500000 0.000000
vt 0.000000 0.625000
vt 0.250000 0.000000
vt 0.500000 0.875000
vt 0.000000 0.000000
vt 0.250000 0.875000
s off
f 37/49/6 38/50/6 33/51/6
f 38/50/1 39/52/1 34/53/1
f 39/52/2 40/54/2 35/55/2
f 40/54/3 37/56/3 36/57/3
f 40/52/5 39/58/5 37/54/5
f 38/50/6 34/53/6 33/51/6
f 39/52/1 35/55/1 34/53/1
f 40/54/2 36/57/2 35/55/2
f 37/56/3 33/59/3 36/57/3
f 39/58/5 38/60/5 37/54/5
o Centre
v -0.300000 -0.300000 0.300000
v -0.300000 -0.300000 -0.300000
v 0.300000 -0.300000 -0.300000
v 0.300000 -0.300000 0.300000
v -0.300000 0.300000 0.300000
v -0.300000 0.300000 -0.300000
v 0.300000 0.300000 -0.300000
v 0.300000 0.300000 0.300000
vt 0.000000 0.000000
vt 1.000000 0.000000
vt 0.000000 1.000000
vt 1.000000 1.000000
s off
f 45/61/6 46/62/6 41/63/6
f 46/61/1 47/62/1 42/63/1
f 47/61/2 48/62/2 43/63/2
f 48/61/3 45/62/3 44/63/3
f 41/61/4 42/62/4 44/63/4
f 48/61/5 47/62/5 45/63/5
f 46/62/6 42/64/6 41/63/6
f 47/62/1 43/64/1 42/63/1
f 48/62/2 44/64/2 43/63/2
f 45/62/3 41/64/3 44/63/3
f 42/62/4 43/64/4 44/63/4
f 47/62/5 46/64/5 45/63/5
o Arm2
v -0.200000 -1.300000 0.200000
v -0.200000 -1.300000 -0.200000
v 0.200000 -1.300000 -0.200000
v 0.200000 -1.300000 0.200000
v -0.200000 -0.300000 0.200000
v -0.200000 -0.300000 -0.200000
v 0.200000 -0.300000 -0.200000
v 0.200000 -0.300000 0.200000
vt 1.000000 0.625000
vt 0.750000 0.625000
vt 1.000000 0.000000
vt 0.500000 0.625000
vt 0.750000 0.000000
vt 0.250000 0.625000
vt 0.500000 0.000000
vt 0.000000 0.625000
vt 0.250000 0.000000
vt 0.500000 0.875000
vt 0.750000 0.875000
vt 0.000000 0.000000
s off
f 53/65/6 54/66/6 49/67/6
f 54/66/1 55/68/1 50/69/1
f 55/68/2 56/70/2 51/71/2
f 56/70/3 53/72/3 52/73/3
f 49/74/4 50/68/4 52/75/4
f 54/66/6 50/69/6 49/67/6
f 55/68/1 51/71/1 50/69/1
f 56/70/2 52/73/2 51/71/2
f 53/72/3 49/76/3 52/73/3
f 50/68/4 51/66/4 52/75/4
